<mxfile host="app.diagrams.net" modified="2023-11-11T06:07:20.226Z" agent="Mozilla/5.0 (Macintosh; Intel Mac OS X 10_15_7) AppleWebKit/537.36 (KHTML, like Gecko) Chrome/118.0.0.0 Safari/537.36" etag="AGj8PCAlWrNG_8FtFaDt" version="22.1.0" type="device">
  <diagram name="Page-1" id="Jmm9Oj02wrvmcJ3PtMYO">
    <mxGraphModel dx="1098" dy="735" grid="1" gridSize="10" guides="1" tooltips="1" connect="1" arrows="1" fold="1" page="1" pageScale="1" pageWidth="827" pageHeight="1169" math="0" shadow="0">
      <root>
        <mxCell id="0" />
        <mxCell id="1" parent="0" />
        <mxCell id="tDnCYuS4CFpX74GsRC57-3" value="" style="edgeStyle=orthogonalEdgeStyle;rounded=0;orthogonalLoop=1;jettySize=auto;html=1;" edge="1" parent="1" source="tDnCYuS4CFpX74GsRC57-1" target="tDnCYuS4CFpX74GsRC57-2">
          <mxGeometry relative="1" as="geometry">
            <Array as="points">
              <mxPoint x="280" y="160" />
              <mxPoint x="280" y="160" />
            </Array>
          </mxGeometry>
        </mxCell>
        <mxCell id="tDnCYuS4CFpX74GsRC57-7" value="" style="edgeStyle=orthogonalEdgeStyle;rounded=0;orthogonalLoop=1;jettySize=auto;html=1;" edge="1" parent="1" source="tDnCYuS4CFpX74GsRC57-1" target="tDnCYuS4CFpX74GsRC57-6">
          <mxGeometry relative="1" as="geometry">
            <Array as="points">
              <mxPoint x="420" y="160" />
              <mxPoint x="490" y="160" />
            </Array>
          </mxGeometry>
        </mxCell>
        <mxCell id="tDnCYuS4CFpX74GsRC57-13" value="" style="edgeStyle=orthogonalEdgeStyle;rounded=0;orthogonalLoop=1;jettySize=auto;html=1;" edge="1" parent="1" source="tDnCYuS4CFpX74GsRC57-1" target="tDnCYuS4CFpX74GsRC57-12">
          <mxGeometry relative="1" as="geometry">
            <Array as="points">
              <mxPoint x="420" y="160" />
              <mxPoint x="670" y="160" />
            </Array>
          </mxGeometry>
        </mxCell>
        <mxCell id="tDnCYuS4CFpX74GsRC57-32" value="" style="edgeStyle=orthogonalEdgeStyle;rounded=0;orthogonalLoop=1;jettySize=auto;html=1;" edge="1" parent="1" source="tDnCYuS4CFpX74GsRC57-1" target="tDnCYuS4CFpX74GsRC57-31">
          <mxGeometry relative="1" as="geometry" />
        </mxCell>
        <mxCell id="tDnCYuS4CFpX74GsRC57-33" value="" style="edgeStyle=orthogonalEdgeStyle;rounded=0;orthogonalLoop=1;jettySize=auto;html=1;" edge="1" parent="1" source="tDnCYuS4CFpX74GsRC57-1" target="tDnCYuS4CFpX74GsRC57-29">
          <mxGeometry relative="1" as="geometry" />
        </mxCell>
        <mxCell id="tDnCYuS4CFpX74GsRC57-1" value="Home (index.html)" style="rounded=0;whiteSpace=wrap;html=1;" vertex="1" parent="1">
          <mxGeometry x="360" y="60" width="120" height="60" as="geometry" />
        </mxCell>
        <mxCell id="tDnCYuS4CFpX74GsRC57-16" style="edgeStyle=orthogonalEdgeStyle;rounded=0;orthogonalLoop=1;jettySize=auto;html=1;" edge="1" parent="1" source="tDnCYuS4CFpX74GsRC57-2" target="tDnCYuS4CFpX74GsRC57-6">
          <mxGeometry relative="1" as="geometry" />
        </mxCell>
        <mxCell id="tDnCYuS4CFpX74GsRC57-38" value="" style="edgeStyle=orthogonalEdgeStyle;rounded=0;orthogonalLoop=1;jettySize=auto;html=1;" edge="1" parent="1" source="tDnCYuS4CFpX74GsRC57-2" target="tDnCYuS4CFpX74GsRC57-4">
          <mxGeometry relative="1" as="geometry" />
        </mxCell>
        <mxCell id="tDnCYuS4CFpX74GsRC57-39" value="" style="edgeStyle=orthogonalEdgeStyle;rounded=0;orthogonalLoop=1;jettySize=auto;html=1;" edge="1" parent="1" source="tDnCYuS4CFpX74GsRC57-2" target="tDnCYuS4CFpX74GsRC57-4">
          <mxGeometry relative="1" as="geometry" />
        </mxCell>
        <mxCell id="tDnCYuS4CFpX74GsRC57-42" style="edgeStyle=orthogonalEdgeStyle;rounded=0;orthogonalLoop=1;jettySize=auto;html=1;entryX=0.75;entryY=0;entryDx=0;entryDy=0;" edge="1" parent="1" source="tDnCYuS4CFpX74GsRC57-2" target="tDnCYuS4CFpX74GsRC57-41">
          <mxGeometry relative="1" as="geometry" />
        </mxCell>
        <mxCell id="tDnCYuS4CFpX74GsRC57-2" value="About" style="rounded=0;whiteSpace=wrap;html=1;" vertex="1" parent="1">
          <mxGeometry x="70" y="210" width="120" height="60" as="geometry" />
        </mxCell>
        <mxCell id="tDnCYuS4CFpX74GsRC57-44" value="" style="edgeStyle=orthogonalEdgeStyle;rounded=0;orthogonalLoop=1;jettySize=auto;html=1;" edge="1" parent="1" source="tDnCYuS4CFpX74GsRC57-4" target="tDnCYuS4CFpX74GsRC57-43">
          <mxGeometry relative="1" as="geometry" />
        </mxCell>
        <mxCell id="tDnCYuS4CFpX74GsRC57-46" style="edgeStyle=orthogonalEdgeStyle;rounded=0;orthogonalLoop=1;jettySize=auto;html=1;" edge="1" parent="1" source="tDnCYuS4CFpX74GsRC57-4" target="tDnCYuS4CFpX74GsRC57-45">
          <mxGeometry relative="1" as="geometry" />
        </mxCell>
        <mxCell id="tDnCYuS4CFpX74GsRC57-4" value="Overview of employment history, &amp;amp; interests" style="rounded=0;whiteSpace=wrap;html=1;" vertex="1" parent="1">
          <mxGeometry x="40" y="350" width="120" height="60" as="geometry" />
        </mxCell>
        <mxCell id="tDnCYuS4CFpX74GsRC57-14" value="" style="edgeStyle=orthogonalEdgeStyle;rounded=0;orthogonalLoop=1;jettySize=auto;html=1;" edge="1" parent="1" source="tDnCYuS4CFpX74GsRC57-6" target="tDnCYuS4CFpX74GsRC57-2">
          <mxGeometry relative="1" as="geometry" />
        </mxCell>
        <mxCell id="tDnCYuS4CFpX74GsRC57-15" style="edgeStyle=orthogonalEdgeStyle;rounded=0;orthogonalLoop=1;jettySize=auto;html=1;" edge="1" parent="1" source="tDnCYuS4CFpX74GsRC57-6" target="tDnCYuS4CFpX74GsRC57-12">
          <mxGeometry relative="1" as="geometry" />
        </mxCell>
        <mxCell id="tDnCYuS4CFpX74GsRC57-18" style="edgeStyle=orthogonalEdgeStyle;rounded=0;orthogonalLoop=1;jettySize=auto;html=1;entryX=0.5;entryY=1;entryDx=0;entryDy=0;" edge="1" parent="1" source="tDnCYuS4CFpX74GsRC57-6" target="tDnCYuS4CFpX74GsRC57-1">
          <mxGeometry relative="1" as="geometry">
            <Array as="points">
              <mxPoint x="490" y="160" />
              <mxPoint x="420" y="160" />
            </Array>
          </mxGeometry>
        </mxCell>
        <mxCell id="tDnCYuS4CFpX74GsRC57-23" value="" style="edgeStyle=orthogonalEdgeStyle;rounded=0;orthogonalLoop=1;jettySize=auto;html=1;" edge="1" parent="1" source="tDnCYuS4CFpX74GsRC57-47" target="tDnCYuS4CFpX74GsRC57-22">
          <mxGeometry relative="1" as="geometry" />
        </mxCell>
        <mxCell id="tDnCYuS4CFpX74GsRC57-17" style="edgeStyle=orthogonalEdgeStyle;rounded=0;orthogonalLoop=1;jettySize=auto;html=1;" edge="1" parent="1" source="tDnCYuS4CFpX74GsRC57-12" target="tDnCYuS4CFpX74GsRC57-6">
          <mxGeometry relative="1" as="geometry" />
        </mxCell>
        <mxCell id="tDnCYuS4CFpX74GsRC57-21" value="" style="edgeStyle=orthogonalEdgeStyle;rounded=0;orthogonalLoop=1;jettySize=auto;html=1;" edge="1" parent="1" source="tDnCYuS4CFpX74GsRC57-12" target="tDnCYuS4CFpX74GsRC57-20">
          <mxGeometry relative="1" as="geometry" />
        </mxCell>
        <mxCell id="tDnCYuS4CFpX74GsRC57-12" value="Contact" style="rounded=0;whiteSpace=wrap;html=1;" vertex="1" parent="1">
          <mxGeometry x="610" y="210" width="120" height="60" as="geometry" />
        </mxCell>
        <mxCell id="tDnCYuS4CFpX74GsRC57-20" value="Message Box Form" style="rounded=0;whiteSpace=wrap;html=1;" vertex="1" parent="1">
          <mxGeometry x="707" y="350" width="120" height="60" as="geometry" />
        </mxCell>
        <mxCell id="tDnCYuS4CFpX74GsRC57-37" value="" style="edgeStyle=orthogonalEdgeStyle;rounded=0;orthogonalLoop=1;jettySize=auto;html=1;" edge="1" parent="1" source="tDnCYuS4CFpX74GsRC57-22" target="tDnCYuS4CFpX74GsRC57-36">
          <mxGeometry relative="1" as="geometry" />
        </mxCell>
        <mxCell id="tDnCYuS4CFpX74GsRC57-22" value="5 Blog posts on interests" style="rounded=0;whiteSpace=wrap;html=1;" vertex="1" parent="1">
          <mxGeometry x="414" y="400" width="120" height="60" as="geometry" />
        </mxCell>
        <mxCell id="tDnCYuS4CFpX74GsRC57-25" value="Contact Information" style="rounded=0;whiteSpace=wrap;html=1;" vertex="1" parent="1">
          <mxGeometry x="560" y="350" width="120" height="60" as="geometry" />
        </mxCell>
        <mxCell id="tDnCYuS4CFpX74GsRC57-29" value="Website Logo" style="rounded=0;whiteSpace=wrap;html=1;" vertex="1" parent="1">
          <mxGeometry x="180" y="60" width="120" height="60" as="geometry" />
        </mxCell>
        <mxCell id="tDnCYuS4CFpX74GsRC57-31" value="Intro to website to learn more about me" style="rounded=0;whiteSpace=wrap;html=1;" vertex="1" parent="1">
          <mxGeometry x="560" y="60" width="120" height="60" as="geometry" />
        </mxCell>
        <mxCell id="tDnCYuS4CFpX74GsRC57-35" style="edgeStyle=orthogonalEdgeStyle;rounded=0;orthogonalLoop=1;jettySize=auto;html=1;entryX=0.375;entryY=0.033;entryDx=0;entryDy=0;entryPerimeter=0;" edge="1" parent="1" source="tDnCYuS4CFpX74GsRC57-12" target="tDnCYuS4CFpX74GsRC57-25">
          <mxGeometry relative="1" as="geometry" />
        </mxCell>
        <mxCell id="tDnCYuS4CFpX74GsRC57-36" value="Links to articles" style="rounded=0;whiteSpace=wrap;html=1;" vertex="1" parent="1">
          <mxGeometry x="414" y="550" width="120" height="60" as="geometry" />
        </mxCell>
        <mxCell id="tDnCYuS4CFpX74GsRC57-41" value="Picture of self" style="whiteSpace=wrap;html=1;" vertex="1" parent="1">
          <mxGeometry x="180" y="350" width="120" height="60" as="geometry" />
        </mxCell>
        <mxCell id="tDnCYuS4CFpX74GsRC57-43" value="Link to Soundcloud mix" style="rounded=0;whiteSpace=wrap;html=1;" vertex="1" parent="1">
          <mxGeometry x="10" y="490" width="90" height="40" as="geometry" />
        </mxCell>
        <mxCell id="tDnCYuS4CFpX74GsRC57-45" value="Link to restaurants" style="whiteSpace=wrap;html=1;" vertex="1" parent="1">
          <mxGeometry x="120" y="490" width="90" height="40" as="geometry" />
        </mxCell>
        <mxCell id="tDnCYuS4CFpX74GsRC57-48" value="" style="edgeStyle=orthogonalEdgeStyle;rounded=0;orthogonalLoop=1;jettySize=auto;html=1;" edge="1" parent="1" source="tDnCYuS4CFpX74GsRC57-6" target="tDnCYuS4CFpX74GsRC57-47">
          <mxGeometry relative="1" as="geometry">
            <mxPoint x="420" y="270" as="sourcePoint" />
            <mxPoint x="420" y="400" as="targetPoint" />
          </mxGeometry>
        </mxCell>
        <mxCell id="tDnCYuS4CFpX74GsRC57-47" value="Footer with links to social media" style="whiteSpace=wrap;html=1;" vertex="1" parent="1">
          <mxGeometry x="250" y="210" width="120" height="60" as="geometry" />
        </mxCell>
        <mxCell id="tDnCYuS4CFpX74GsRC57-6" value="Blog" style="rounded=0;whiteSpace=wrap;html=1;" vertex="1" parent="1">
          <mxGeometry x="430" y="210" width="120" height="60" as="geometry" />
        </mxCell>
      </root>
    </mxGraphModel>
  </diagram>
</mxfile>
